<?xml version="1.0" standalone="no"?>
<!DOCTYPE svg PUBLIC "-//W3C//DTD SVG 20010904//EN"
 "http://www.w3.org/TR/2001/REC-SVG-20010904/DTD/svg10.dtd">
<svg version="1.0" xmlns="http://www.w3.org/2000/svg"
 width="500.000000pt" height="500.000000pt" viewBox="0 0 500.000000 500.000000"
 preserveAspectRatio="xMidYMid meet">
<metadata>
Created by potrace 1.14, written by Peter Selinger 2001-2017
</metadata>
<g transform="translate(0.000000,500.000000) scale(0.100000,-0.100000)"
fill="#000000" stroke="none">
<path d="M2668 4285 c-3 -4 -68 -8 -144 -10 -77 -3 -155 -7 -174 -9 -102 -14
-132 -19 -205 -35 -118 -27 -299 -85 -315 -101 -3 -3 -12 -6 -21 -8 -39 -6
-253 -123 -336 -184 -29 -21 -55 -38 -58 -38 -3 0 -16 -9 -28 -21 -12 -12 -33
-28 -47 -38 -22 -14 -157 -138 -182 -166 -5 -5 -27 -30 -49 -55 -52 -57 -189
-238 -196 -259 -4 -9 -12 -23 -18 -31 -32 -39 -162 -315 -170 -360 0 -3 -11
-36 -24 -75 -13 -38 -25 -79 -27 -90 -7 -32 -24 -117 -30 -149 -3 -16 -6 -32
-8 -35 -24 -40 -24 -489 -1 -601 3 -14 8 -40 11 -59 9 -51 11 -61 29 -131 19
-76 62 -203 82 -242 7 -15 13 -30 12 -33 0 -3 8 -25 19 -48 11 -23 22 -49 25
-57 11 -27 146 -252 157 -260 3 -3 21 -26 39 -52 17 -27 36 -48 41 -48 5 0 12
-9 15 -20 5 -17 189 -207 237 -245 143 -116 238 -179 373 -249 50 -26 91 -47
92 -47 2 0 24 -9 50 -20 48 -21 145 -57 173 -64 55 -15 90 -22 90 -18 0 3 6 1
13 -5 18 -16 175 -44 322 -58 151 -15 365 -2 555 31 25 5 104 26 120 32 8 3
26 8 39 10 21 4 123 40 181 65 28 12 49 19 68 20 6 1 12 5 12 8 0 4 15 14 33
21 45 18 193 104 250 145 26 19 51 34 56 34 5 0 11 3 13 8 2 4 35 32 73 63
101 81 197 178 285 288 19 24 40 48 45 55 6 6 32 45 59 86 27 41 57 87 67 102
11 15 19 34 19 42 0 8 4 16 8 18 24 10 161 356 176 445 2 15 5 28 6 28 1 0 3
7 5 15 1 8 8 40 14 71 6 30 14 73 16 95 3 21 7 62 10 89 18 158 1 436 -35 592
-11 46 -22 93 -24 105 -7 35 -75 228 -97 272 -10 22 -19 43 -19 47 0 22 -184
321 -224 366 -6 6 -22 26 -36 45 -79 105 -327 328 -437 393 -18 11 -33 23 -33
27 0 4 -5 8 -11 8 -6 0 -48 21 -93 46 -44 26 -87 47 -93 47 -7 0 -13 4 -13 9
0 4 -7 8 -16 8 -9 0 -32 9 -50 21 -19 11 -34 17 -34 14 0 -4 -6 -3 -12 3 -21
17 -236 83 -313 96 -16 3 -53 10 -82 15 -74 14 -142 24 -183 25 -19 0 -38 4
-41 9 -3 4 -8 5 -11 2z"/>
</g>
</svg>
